<svg version="1" xmlns="http://www.w3.org/2000/svg" width="682.667" height="682.667" viewBox="0 0 512.000000 512.000000"><path d="M0 256v256h89.2l-5.7-6.2c-16.7-18-21.2-47.9-11-73.8 6.1-15.6 16.4-29.2 39.3-51.9l16.5-16.4-5.9-5c-25.8-22.2-42.3-50.9-49.5-86.4-3.1-15.2-3.8-48-1.5-64.3C82.5 131.4 134.7 83.9 220 73c23.1-3 57.5-2.3 81 1.6 8.7 1.5 29.1 6.3 33.3 7.9 1.4.6 2.4-.8 5.6-7.6 7-15 9.8-29.9 10.8-57.7l.6-17.2H0v256zM455.6 15.2c-1.2 25.9-4.5 43.1-11.7 60.4-6.6 15.9-21.4 34.1-36.1 44.4l-6.7 4.7 4.1 4.9c15.8 19.1 27 43.9 32 71 3.1 17.1 3.1 50.5-.1 67.8-11.5 63.5-53 107-117.5 123.1-22.9 5.7-33.9 6.9-64.1 7-24.3 0-33.9-.6-48.1-3.1-2.8-.5-3.8.3-16.3 14.2-14.2 15.9-17.1 20.2-17.1 26.1 0 4.6 2 7.7 6.3 10.1 2.9 1.6 9.6 1.7 81.2 2.3 83.1.6 84.7.7 107.5 6 36 8.3 63.2 25.4 79 49.6l5.3 8.3H512V0h-55.7l-.7 15.2z"/><path d="M243.5 157c-26.1 4.1-43.6 21.1-50.5 49-2.7 10.8-3.8 34.8-2.1 47.1 4.3 32.7 19 51.7 45.1 58.6 9 2.4 29.1 2.3 38-.1 21.1-5.8 36-21.8 42-45.1 6.2-24.2 4.1-58.1-4.9-77-7.6-16.2-20.8-27.1-37.3-31-8.2-1.9-22.8-2.6-30.3-1.5z"/></svg>