<svg version="1.0" viewBox="0 0 566.94 74.548" xmlns="http://www.w3.org/2000/svg">
 <defs>
  <radialGradient id="d" cx="0" cy="0" r="1" gradientTransform="matrix(24.98,0,0,-24.98,568.24,786.91)" gradientUnits="userSpaceOnUse">
   <stop stop-color="#fedf33" offset="0"/>
   <stop stop-color="#fbb809" offset=".44"/>
   <stop stop-color="#ee960d" offset=".89999"/>
   <stop stop-color="#d87301" offset="1"/>
  </radialGradient>
  <radialGradient id="c" cx="0" cy="0" r="1" gradientTransform="matrix(24.91,0,0,-24.91,543.6,793.65)" gradientUnits="userSpaceOnUse">
   <stop stop-color="#fedf33" offset="0"/>
   <stop stop-color="#fbb809" offset=".44"/>
   <stop stop-color="#ee960d" offset=".89999"/>
   <stop stop-color="#e17a10" offset="1"/>
  </radialGradient>
  <radialGradient id="b" cx="0" cy="0" r="1" gradientTransform="matrix(24.92,0,0,-24.92,561.76,811.73)" gradientUnits="userSpaceOnUse">
   <stop stop-color="#fedf33" offset="0"/>
   <stop stop-color="#fbb809" offset=".44"/>
   <stop stop-color="#ee960d" offset=".89999"/>
   <stop stop-color="#e17a10" offset="1"/>
  </radialGradient>
  <radialGradient id="a" cx="0" cy="0" r="1" gradientTransform="matrix(24.902,0,0,-24.902,568.26,786.99)" gradientUnits="userSpaceOnUse">
   <stop stop-color="#fedf33" offset="0"/>
   <stop stop-color="#fbb809" offset=".44"/>
   <stop stop-color="#ee960d" offset=".89999"/>
   <stop stop-color="#e17a10" offset="1"/>
  </radialGradient>
 </defs>
 <g transform="translate(-562 -1013)">
  <g transform="matrix(2.6668,0,0,-2.6668,-401.84,3177.7)">
   <path d="m562.2 811.73c-0.585 0-2.324 0-4.345-2.454 0.026-0.031 0.052-0.062 0.079-0.094 0.519 0.607 1.17 1.228 1.869 1.68 0.646 0.416 1.395 0.694 2.015 0.762 0.452 0.05 1.947 0.031 3.649 0.031 9e-3 0 0.014-4e-3 0.018-9e-3l-0.044 0.074c-3e-3 7e-3 -9e-3 0.01-0.016 0.01z" fill="url(#a)"/>
   <path d="m550.34 811.73c-6e-3 0-0.013-2e-3 -0.017-9e-3l-6.33-10.964-1.985-3.438-0.23-0.399-0.03-0.051c-2e-3 -4e-3 -2e-3 -0.011 2e-3 -0.019l6.03-10.444v0.043c-0.131 0.24-0.225 0.425-0.275 0.541-0.252 0.571-0.395 1.361-0.358 2.129 0.102 2.022 1.177 4.017 1.718 4.953 1.268 2.196 3.719 6.443 3.719 6.443s2.452 4.247 3.72 6.444c0.54 0.935 1.731 2.864 3.432 3.963 0.645 0.417 1.403 0.687 2.021 0.755 0.453 0.051 1.957 0.053 3.661 0.053z" fill="url(#b)"/>
   <path d="m541.8 796.76c0.095-0.166 0.189-0.33 0.282-0.49zm30.332-3.06c-0.369-0.502-0.981-1.023-1.665-1.373-1.803-0.923-4.067-0.99-5.147-0.99h-14.881c-1.08 0-3.347 0.067-5.147 0.99-0.685 0.35-1.297 0.871-1.666 1.373-0.234 0.319-0.834 1.341-1.544 2.57l1.513-2.622 5.694-9.863c3e-3 -5e-3 0.01-9e-3 0.016-9e-3h17.149c5e-3 0 0.012 5e-3 0.015 0.01l7.472 12.941c-0.824-1.427-1.546-2.67-1.809-3.027" fill="url(#c)"/>
   <path d="m561.76 811.67c-0.618-0.068-1.376-0.338-2.021-0.755-0.712-0.46-1.334-1.065-1.857-1.682 0.727-0.857 1.261-1.736 1.575-2.281 1.268-2.197 3.721-6.444 3.721-6.444s2.451-4.247 3.72-6.443c0.539-0.936 1.615-2.931 1.715-4.953 0.038-0.768-0.107-1.558-0.356-2.129-0.175-0.399-0.87-1.612-1.677-3.01l7.433 12.873c0 1e-3 1e-3 2e-3 1e-3 4e-3v8e-3c0 2e-3 -1e-3 4e-3 -2e-3 5e-3l-8.575 14.85c-3e-3 7e-3 -9e-3 0.01-0.016 0.01-1.704 0-3.208-2e-3 -3.661-0.053" fill="url(#d)"/>
   <path transform="matrix(.8 0 0 -.8 0 841.89)" d="m461.31 47.219c-5.3025 0-9.5312 4.365-9.5312 9.8438 1e-5 5.7263 4.1562 9.6875 9.2812 9.6875 2.9338-1e-6 5.2062-1.0512 6.9375-3.0312l-2.5625-2.625c-1.06 1.1313-2.3938 1.75-4.125 1.75-3.0038 0-5.0312-2.5162-5.0312-5.875-1e-5 -3.2512 2.0712-5.8438 4.9688-5.8438 1.5213 1e-6 2.8138 0.56875 3.875 1.5938l2.6562-2.75c-1.5562-1.6962-3.8525-2.75-6.4688-2.75zm17.969 0c-5.62 0-9.8438 4.4-9.8438 9.8438 1e-5 5.515 3.9925 9.6875 9.7188 9.6875 5.62-1e-6 9.8438-4.3988 9.8438-9.8438 0-5.5138-3.9938-9.6875-9.7188-9.6875zm14.281 0.3125-1.8438 18.875h3.9062l0.875-10.188c0.17625-1.98 0.1875-4.0312 0.1875-4.0312h0.0937c0 1e-6 0.435 2.0638 1 3.9375l3.1875 10.281h3.7188l3.1875-10.375c0.565-1.8025 1-3.8438 1-3.8438h0.0625c0 1e-6 0.0425 2.0425 0.21875 4.0938l0.84375 10.125h4.1562l-1.8438-18.875h-5.4688l-2.875 9.3438c-0.45874 1.5225-0.9375 3.4688-0.9375 3.4688-1e-5 0-0.50375-1.9438-1-3.5l-2.9062-9.3125h-5.5625zm26.312 0-1.8125 18.875h3.9062l0.84375-10.188c0.17626-1.98 0.21875-4.0312 0.21875-4.0312h0.0625c-2e-5 1e-6 0.46625 2.0638 1.0312 3.9375l3.1875 10.281h3.7188l3.1562-10.375c0.56623-1.8025 1-3.8438 1-3.8438h0.0625c-2e-5 1e-6 0.0425 2.0425 0.21875 4.0938l0.84375 10.125h4.1875l-1.8438-18.875h-5.4688l-2.875 9.3438c-0.46001 1.5225-0.9375 3.4688-0.9375 3.4688 1e-5 0-0.505-1.9438-1-3.5l-2.9062-9.3125h-5.5938zm25.125 0v18.875h12.281v-3.625h-8.1562v-4.125h6.9062v-3.5312h-6.9062v-4h8.0312v-3.5938zm17.125 0v18.875h4.125v-6.875h1.2812l4.0312 6.875h4.9062l-4.6562-7.5938c2.4388-0.91875 3.8125-2.8112 3.8125-5.25-3e-5 -3.8175-2.1525-6.0312-7.8438-6.0312h-5.6562zm16.938 0v3.5938h7.625l-7.8125 12.156v3.125h13.156v-3.625h-8l7.8125-12.156v-3.0938zm17.219 0v18.875h7.2188c3.3588-2e-6 7.0938-1.515 7.0938-5.4375-2e-5 -2.4388-1.5575-4.09-4.0312-4.4062v-0.03125c1.9437-0.6025 3.1562-2.0712 3.1562-4.1562-1e-5 -4.1013-3.6162-4.8438-6.9062-4.8438h-6.5312zm22.406 0-6.7188 18.875h4.125l1.3125-3.8438h7.3438l1.3125 3.8438h4.4375l-6.7188-18.875h-5.0938zm14.375 0v18.875h3.8125v-8.9688c0-1.6975-0.125-3.4375-0.125-3.4375-2e-5 2e-6 0.88625 1.5162 1.875 3l6.4062 9.4062h3.6562v-18.875h-3.8438v8.5625c1e-5 1.6975 0.125 3.4062 0.125 3.4062s-0.88375-1.515-1.875-3l-6.125-8.9688h-3.9062zm20.156 0v18.875h4.0938v-8.8438l6.0312 8.8438h5.0625l-6.9375-10.125 6.2812-8.75h-4.75l-5.6875 8.4688v-8.4688h-4.0938zm-174 3.5312c3.2512 2e-6 5.3438 2.58 5.3438 5.9375 1e-5 3.1813-2.0225 5.9062-5.3438 5.9062-3.2525 0-5.3438-2.5788-5.3438-5.9375 0-3.1812 2.0212-5.9062 5.3438-5.9062zm87.031 0h1.6875c2.1912-1e-6 3.4688 0.6625 3.4688 2.5 2e-5 1.7675-1.1712 2.5312-3.4688 2.5312h-1.6875zm34.125 0h2.375c1.3075-1e-6 2.625 0.4125 2.625 1.9688-1e-5 1.5188-1.1275 2.125-2.4375 2.125h-2.5625zm20.719 0.28125c-1e-5 1e-6 0.35125 1.2775 0.8125 2.6562l1.6562 5h-4.9375l1.6562-4.9688c0.46002-1.4138 0.8125-2.6875 0.8125-2.6875zm-20.719 7.2812h3.0312c1.8362 1e-6 3.0312 0.5775 3.0312 2.0625-1e-5 1.45-0.94625 2.1875-3.0312 2.1875h-3.0312z"/>
  </g>
 </g>
</svg>
