<svg xmlns="http://www.w3.org/2000/svg" viewBox="0 0 110 45">
  <path fill="#7dac04" d="M84.6 31.3h1.7v4.6l4.5-4.6H93l-4 4 4.3 6.1h-2.2l-3.2-5-1.5 1.4v3.4h-1.7l-.1-9.9zm-10.3 0h1.9l4.7 7.5h.1v-7.5h1.7v10.1h-1.9L76.1 34H76v7.5h-1.7V31.3zM67 37.4h3.1L68.7 33h-.1L67 37.4zm.7-6.1h1.9l3.8 10.1h-1.9l-1-2.8h-4l-1 2.8h-1.8l4-10.1zm-11 8.6h3.1c.5 0 1-.2 1.2-.5.3-.3.5-.7.5-1.2s-.2-.9-.5-1.1c-.3-.3-.7-.5-1.2-.5h-3.1v3.3zm0-4.4h2.9c.4 0 .7-.2 1.1-.4.4-.2.4-.6.4-1.1 0-.5-.2-.9-.4-1.1-.3-.2-.6-.3-1.1-.3h-2.9v2.9zM55 31.3h5c.9 0 1.7.2 2.2.6.5.5.8 1.1.8 1.8 0 .5-.2.9-.4 1.4-.2.5-.7.6-1.2.8.6.2 1.1.5 1.5.9.3.5.5 1.1.5 1.7 0 .5-.1.7-.2 1.1-.2.4-.4.6-.7.9-.3.2-.7.5-1.1.6-.4.2-1.1.2-1.7.2H55v-10z" class="st0"/>
  <path fill="#454545" d="M109.5 9.2c-2.3-.1-4.5 1.1-5.9 3.1V9.4h-2v14.7h2V18c0-1.3.2-3.1 1.5-4.6 1-1.3 2.6-2 4.3-2h.5V9.2h-.4zm-50.3-4H59.5c.6 0 1.2.1 1.9.4l.5.2v-2l-.2-.1c-.7-.2-1.5-.4-2.1-.4-1.1 0-2 .3-2.8.8-1.6 1.2-1.8 3-1.8 4.3v1h-2v1.9h2V24h2V11.3h4.9V9.4H57v-.9c-.1-2.2.7-3.2 2.2-3.3m24 10.6V3.4h-2v13.1c-.1 1-.2 2.1-.6 2.9-.7 1.8-2.5 2.9-4.4 2.9H76c-1.9 0-3.5-1.4-4-3.4-.7-2.2-.5-4.7.5-6.4.5-.8 1.1-1.6 2-1.9.7-.4 1.7-.5 2.9-.3l.2.1V8.7h-.2c-.5 0-.8-.1-1.3-.1-1.3 0-2.6.4-3.6 1-1.1.8-2 2-2.6 3.6-.1.2-.2.6-.2.6-.8 3.2-.3 7.4 2.7 9.4 1 .7 2.2 1 3.5 1 2.5 0 4.8-1.3 6-3.3 1-1.3 1.4-3.3 1.3-5.1m4.2.2c.2-2.2 1.2-4 2.8-4.9.6-.4 1.3-.6 2.1-.6 1 0 2 .4 2.8.9 1.3 1 2.1 2.8 2.2 4.8.1 1.8-.5 4.2-2.2 5.6-.7.6-1.7.9-2.8.9s-2-.4-2.8-.9c-1.5-1.3-2.3-3.5-2.1-5.8m8.2-6.6c-.2-.1-.2-.1-.2-.2-.1-.1-.2-.1-.2-.1H95c-1.6-.6-3.5-.7-5.1-.1-1.7.6-3 1.8-3.8 3.5-1.5 3.1-1.1 8 1.9 10.4 1.1.9 2.7 1.4 4.3 1.4.6 0 1.1 0 1.7-.2 2-.5 3.7-1.8 4.5-3.8 1.7-3.4 1-8.8-2.9-10.9M64.5 6.6h2.1V3.4h-2.1v3.2zm0 17.4h2.1V9h-2.1v15z"/>
  <path fill="#7dac04" d="M23.3.5c-.4 0-.8-.1-1.2-.1C9.9.5 0 10.4 0 22.5 0 30.1 3.9 37 9.8 40.8c.1 0 .2.1.3.2-.6-1-1-2-1.5-3.2-1.3-3.4-2-7.1-2-10.9C6.5 15.4 13.4 5.3 23.3.5m-7.8 43.1c2 .6 4.2 1 6.5 1 12 0 21.7-9.5 22.1-21.5-2.9-5.5-8.9-9.3-15.7-9.3-9.8 0-17.8 8-17.8 17.8 0 1.8.3 3.6.8 5.2m.1 0c.8 2.6 2.1 4.9 3.9 6.8h.1m-5.3-22.1c3.6-6.4 10.4-10.7 18.3-10.7 5.9 0 11.2 2.4 15 6.3C41.7 9.9 36.2 4 29.2 1.6c-9.5 2.6-16.9 10.3-19 19.9"/>
</svg>
