<svg version="1.1" viewBox="0 0 69 15" xmlns="http://www.w3.org/2000/svg">
 <path d="m0.37634 0c-0.20785 0-0.37634 0.1685-0.37634 0.37634v2.2473c0 0.20785 0.16849 0.37634 0.37634 0.37634h9.5475c0.17109 0 0.32069-0.11545 0.36409-0.28099l0.5886-2.2473c0.0624-0.23853-0.1175-0.47169-0.3641-0.47169zm2.3902 15h-2.3902c-0.20785 0-0.37634-0.1685-0.37634-0.3763v-8.2473c0-0.20785 0.1685-0.37635 0.37634-0.37635h8.5646c0.24657 0 0.42653 0.23317 0.36406 0.4717l-0.58858 2.2473c-0.04336 0.16554-0.19294 0.28099-0.36406 0.28099h-4.8332c-0.20785 0-0.37634 0.1685-0.37634 0.37635v5.2473c0 0.2078-0.1685 0.3763-0.37635 0.3763zm12.857-15c0.2078 0 0.3763 0.16849 0.3763 0.37634v14.247c0 0.2078-0.1685 0.3763-0.3763 0.3763h-2.2474c-0.2078 0-0.3763-0.1685-0.3763-0.3763v-14.247c0-0.20785 0.1685-0.37634 0.3763-0.37634z" fill="#ff5762" fill-rule="evenodd"/>
 <path d="m30.318 0h2.3062c0.2078 0 0.3763 0.16849 0.3763 0.37634v14.247c0 0.2078-0.1685 0.3763-0.3763 0.3763h-1.5274c-0.2242 0-0.4366-0.0999-0.5796-0.2725l-7.1248-8.6001c-0.1125-0.13574-0.3331-0.05622-0.3331 0.12005v8.3766c0 0.2078-0.1685 0.3763-0.3763 0.3763h-2.3062c-0.2078 0-0.3763-0.1685-0.3763-0.3763v-14.247c0-0.20785 0.1685-0.37634 0.3763-0.37634h1.527c0.2241 0 0.4366 0.099897 0.5796 0.2725l7.1252 8.6007c0.1125 0.13574 0.3331 0.05622 0.3331-0.12005v-8.3768c0-0.20785 0.1685-0.37634 0.3763-0.37634zm20.682 7.5c0 4.1421-3.3579 7.5-7.5 7.5s-7.5-3.3579-7.5-7.5c0-4.1421 3.3579-7.5 7.5-7.5s7.5 3.3579 7.5 7.5zm-12.016 0c0 2.4942 2.0219 4.5161 4.5161 4.5161s4.5161-2.022 4.5161-4.5161-2.0219-4.5161-4.5161-4.5161-4.5161 2.0219-4.5161 4.5161zm29.64 7.5h-2.2474c-0.2078 0-0.3763-0.1685-0.3763-0.3763v-8.0938c0-0.18036-0.2292-0.2574-0.3381-0.11367l-3.712 4.8975c-0.2259 0.2981-0.6739 0.2981-0.8998 0l-3.712-4.8975c-0.1089-0.14373-0.3381-0.06669-0.3381 0.11367v8.0938c0 0.2078-0.1685 0.3763-0.3763 0.3763h-2.2474c-0.2078 0-0.3763-0.1685-0.3763-0.3763v-14.24c0-0.20723 0.1675-0.37547 0.3748-0.37634l1.6759-0.0070323c0.1183-4.9659e-4 0.23 0.054701 0.3015 0.14902l4.9978 6.5941c0.0753 0.09935 0.2247 0.09935 0.3 0l4.9871-6.5799c0.0711-0.093873 0.1821-0.14902 0.2999-0.14902h1.6867c0.2078 0 0.3763 0.16849 0.3763 0.37634v14.232c0 0.2078-0.1685 0.3763-0.3763 0.3763z" fill="#ff5762"/>
</svg>
