<svg xmlns="http://www.w3.org/2000/svg" viewBox="0 0 100 60">
  <path fill="#d2ffd6" d="M.4 22.1s-5.9 39.1 28.4 37.8c36.6-1.4 47.5-29.2 46.6-41.1C74.4 7.6 40.7 1 27.1.1 1.7-1.3.4 22.1.4 22.1z"/>
  <path d="M99.9 19.7H72.8c-3.3 0-5.9 2.5-5.9 5.8s2.6 5.8 5.9 5.8h3.3c1.7 0 3.3 1.5 3.3 3.2 0 1.7-1.5 3.1-3.3 3.1H61.4l-3.2-6.2c.5-.1.9-.4 1.4-.5 1.9-1 3.2-3 3.2-5.3 0-3.3-2.6-6-6-6H44.5l-5.8 10h-.1l-5.9-10H14.4v20.9h3.5v-9.1h8.5v-3h-8.6v-5.8h12.7l6.4 10.5v7.4h3.5V33l6.5-10.4h9.8c1.5 0 2.9 1.3 2.9 2.9 0 1.5-1.3 2.9-2.9 2.9h-6.8v2.9h4.6l4.5 9.2h17.3c3.5 0 6.2-2.7 6.2-6.2s-2.7-6.1-6.2-6.1H73c-1.5 0-2.9-1.3-2.9-2.8s1.3-2.8 2.9-2.8h15.3v17.9h3.5V22.6h8.3l-.2-2.9z"/>
</svg>
