<svg width="120" height="72" xmlns="http://www.w3.org/2000/svg">
    <path fill="#FFF" d="M.315 17.667s-4.76 31.352 22.728 30.307c29.359-1.128 38.002-23.478 37.265-32.931C59.6 5.957 32.593.736 21.682.059 1.307-1.183.315 17.667.315 17.667z"/>
    <path fill="#000" d="M80 15.628H58.312c-2.605 0-4.729 2.09-4.729 4.653 0 2.563 2.124 4.652 4.729 4.652h2.633c1.444 0 2.605 1.143 2.605 2.536s-1.161 2.535-2.605 2.535h-11.75l-2.492-4.931a4.772 4.772 0 0 0 1.076-.446 4.784 4.784 0 0 0 2.52-4.207 4.795 4.795 0 0 0-4.785-4.792h-9.797l-4.757 8.08h-.085l-4.785-8.08H11.51v16.744h2.718v-7.3h6.908v-2.395H14.2v-4.653h10.22l5.126 8.442v5.906h2.718V26.41l5.125-8.386h7.928c1.302 0 2.321 1.03 2.321 2.34 0 1.282-1.047 2.34-2.321 2.34h-5.493v2.369h3.85l3.653 7.3h13.732c2.746 0 4.983-2.23 4.983-4.932 0-2.703-2.237-4.904-4.983-4.904h-2.605c-1.302 0-2.35-1.003-2.35-2.256 0-1.254 1.048-2.257 2.35-2.257h12.175v14.348h2.718V18.024h6.626v-2.396H80z"/>
</svg>
