<svg xmlns="http://www.w3.org/2000/svg" viewBox="0 0 120 27">
  <path fill="#064545" d="M74.2 21c-.1-.1-.2-.1-.3-.1h-9.4V2.6c0-.1-.1-.3-.1-.4l-.8-.7c-.1-.1-.2-.1-.3-.1h-3.6c-.1 0-.3.1-.3.1l-.8.8c-.1.1-.1.2-.1.3v22.8c0 .1.1.3.1.4l.8.8c.1.1.2.1.3.1h14.2c.1 0 .3-.1.3-.1l.8-.8c.1-.1.1-.2.1-.4V22c0-.1-.1-.3-.1-.4l-.8-.6zM119.2 21c-.1-.1-.2-.1-.3-.1h-4.2V7.1h4.2c.1 0 .3-.1.3-.1l.8-.8V2.6c0-.1-.1-.3-.1-.4l-.8-.7c-.1-.1-.2-.1-.3-.1h-14.2c-.1 0-.3.1-.3.1l-.8.8c-.1.1-.1.2-.1.3v3.3c0 .1.1.3.1.3l.8.8c.1.1.2.1.3.1h4.2v13.7h-4.2c-.1 0-.3.1-.3.1l-.8.8c-.1.1-.1.2-.1.4v3.3c0 .1.1.3.1.4l.8.8c.1.1.2.1.3.1h14.2c.1 0 .3-.1.3-.1l.8-.8c.1-.1.1-.2.1-.4V22c0-.1-.1-.3-.1-.4l-.7-.6zM21.5 1.6c-.1-.1-.2-.1-.4-.1h-3.6c-.1 0-.3.1-.4.1l-.7.7c-.1.1-.1.2-.1.3v7.8H5.9V2.6c0-.1-.1-.3-.1-.4L5 1.5c-.1-.1-.1-.1-.3-.1H1.2c-.1 0-.3.1-.4.1l-.7.7c-.1.1-.1.2-.1.4v22.8c0 .1.1.3.1.4l.8.8c0 .1.1.1.4.1h3.6c.1 0 .3-.1.3-.1l.8-.8v-9.7h10.5v9.2c0 .1.1.3.1.4l.8.8c0 .1.1.1.4.1h3.6c.1 0 .3-.1.4-.1l.8-.8c.1-.1.1-.2.1-.4V2.6c0-.1-.1-.3-.1-.4l-1.1-.6zM97.6 1.6c-.1-.1-.2-.1-.3-.1h-3.6c-.1 0-.3.1-.3.1l-.8.8c-.1.1-.1.2-.1.3v3.5l-4.9 13.2H87L82.1 6V2.6c0-.1-.1-.3-.1-.4l-.8-.7c-.1-.1-.2-.1-.3-.1h-3.6c-.1 0-.3.1-.3.1l-.8.7c-.2.1-.2.2-.2.4V7l.1.3v.1l7.3 18.4c0 .1.1.2.2.2l.7.4c.1.1.2.1.3.1h5.2c.1 0 .2 0 .3-.1l.7-.4.2-.2 7.3-18.4v-.1l.1-.3V2.6c0-.1-.1-.3-.1-.4l-.7-.6zM45.2 8.2l2.5 4.3-.8 5-3.9 3.2h-5.1L34 17.5l-.8-5 2.5-4.3 4.7-1.8 4.8 1.8zm-17.8 4.3l1.2 6.9c.1.6.5 1.3 1 1.8l5.4 4.5c.5.5 1.2.8 2 .8h7c.8 0 1.4-.3 2-.8l5.5-4.5c.5-.5.9-1.1 1-1.8l1.2-6.9c.1-.6 0-1.4-.3-2.1l-3.5-6.1c-.3-.6-.9-1.1-1.5-1.3L41.7.7c-.7-.3-1.4-.3-2 0l-6.6 2.4c-.7.3-1.2.8-1.5 1.3l-3.5 6.1c-.7.6-.9 1.4-.7 2z"/>
</svg>
