<?xml version="1.0" encoding="utf-8"?>
<!-- Generator: Adobe Illustrator 21.1.0, SVG Export Plug-In . SVG Version: 6.00 Build 0)  -->
<!DOCTYPE svg PUBLIC "-//W3C//DTD SVG 1.1//EN" "http://www.w3.org/Graphics/SVG/1.1/DTD/svg11.dtd">
<svg version="1.1" id="Layer_2" xmlns="http://www.w3.org/2000/svg" xmlns:xlink="http://www.w3.org/1999/xlink" x="0px" y="0px"
	 viewBox="0 0 1000 1000" style="enable-background:new 0 0 1000 1000;" xml:space="preserve">
<style type="text/css">
	.st0{fill:#064545;}
</style>
<path class="st0" d="M587.1,891c-0.5-0.5-1.3-0.8-2-0.8H527V777.4c0-0.8-0.3-1.5-0.8-2l-4.3-4.3c-0.5-0.5-1.3-0.8-2-0.8h-22.4
	c-0.8,0-1.5,0.3-2,0.8l-4.3,4.3c-0.5,0.5-0.8,1.3-0.8,2v140.4c0,0.8,0.3,1.5,0.8,2l4.3,4.3c0.5,0.5,1.3,0.8,2,0.8H585
	c0.8,0,1.5-0.3,2-0.8l4.3-4.3c0.5-0.5,0.8-1.3,0.8-2v-20.5c0-0.8-0.3-1.5-0.8-2L587.1,891z"/>
<path class="st0" d="M865.4,891c-0.5-0.5-1.3-0.8-2-0.8h-25.4v-85h25.4c0.8,0,1.5-0.3,2-0.8l4.3-4.3c0.5-0.5,0.8-1.3,0.8-2v-20.5
	c0-0.8-0.3-1.5-0.8-2l-4.3-4.3c-0.5-0.5-1.3-0.8-2-0.8h-87.7c-0.8,0-1.5,0.3-2,0.8l-4.3,4.3c-0.5,0.5-0.8,1.3-0.8,2v20.5
	c0,0.8,0.3,1.5,0.8,2l4.3,4.3c0.5,0.5,1.3,0.8,2,0.8h25.4v85h-25.4c-0.8,0-1.5,0.3-2,0.8l-4.3,4.3c-0.5,0.5-0.8,1.3-0.8,2v20.5
	c0,0.8,0.3,1.5,0.8,2l4.3,4.3c0.5,0.5,1.3,0.8,2,0.8h87.7c0.8,0,1.5-0.3,2-0.8l4.3-4.3c0.5-0.5,0.8-1.3,0.8-2v-20.5
	c0-0.8-0.3-1.5-0.8-2L865.4,891z"/>
<path class="st0" d="M262.4,771.1c-0.5-0.5-1.3-0.8-2-0.8H238c-0.8,0-1.5,0.3-2,0.8l-4.3,4.3c-0.5,0.5-0.8,1.3-0.8,2v48.4h-64.6
	v-48.4c0-0.8-0.3-1.5-0.8-2l-4.3-4.3c-0.5-0.5-1.3-0.8-2-0.8h-22.4c-0.8,0-1.5,0.3-2,0.8l-4.3,4.3c-0.5,0.5-0.8,1.3-0.8,2v140.4
	c0,0.8,0.3,1.5,0.8,2l4.3,4.3c0.5,0.5,1.3,0.8,2,0.8h22.4c0.8,0,1.5-0.3,2-0.8l4.3-4.3c0.5-0.5,0.8-1.3,0.8-2v-57.1h64.6v57.1
	c0,0.8,0.3,1.5,0.8,2l4.3,4.3c0.5,0.5,1.3,0.8,2,0.8h22.4c0.8,0,1.5-0.3,2-0.8l4.3-4.3c0.5-0.5,0.8-1.3,0.8-2V777.4
	c0-0.8-0.3-1.5-0.8-2L262.4,771.1z"/>
<path class="st0" d="M731.8,771.1c-0.5-0.5-1.3-0.8-2-0.8h-22.4c-0.8,0-1.5,0.3-2,0.8l-4.3,4.3c-0.5,0.5-0.8,1.3-0.8,2l-0.2,21.7
	l-30.6,81.2h-2.6l-30.8-82.4v-20.5c0-0.8-0.3-1.5-0.8-2l-4.3-4.3c-0.5-0.5-1.3-0.8-2-0.8h-22.4c-0.8,0-1.5,0.3-2,0.8l-4.3,4.3
	c-0.5,0.5-0.8,1.3-0.8,2v26.5c0,0.2,0,0.4,0.1,0.6l0.4,1.8c0,0.2,0.1,0.4,0.2,0.6l45.5,113.9c0.2,0.5,0.6,0.9,1.1,1.2l3.9,2.5
	c0.5,0.3,1,0.5,1.6,0.5h32.5c0.6,0,1.1-0.2,1.6-0.5l3.9-2.5c0.5-0.3,0.8-0.7,1.1-1.2l45.5-113.9c0.1-0.2,0.1-0.4,0.2-0.6l0.4-1.8
	c0-0.2,0.1-0.4,0.1-0.6v-26.5c0-0.8-0.3-1.5-0.8-2L731.8,771.1z"/>
<path class="st0" d="M599,235.4l52.7,91.2l-18.3,103.7L552.7,498H447.3l-80.7-67.7l-18.3-103.7l52.7-91.2l99-36L599,235.4z
	 M225.9,326.6l25.7,145.6c2.5,14.4,10.1,27.4,21.3,36.8l113.3,95c11.2,9.4,25.3,14.5,40,14.5h147.9c14.6,0,28.8-5.1,40-14.5
	l113.3-95c11.2-9.4,18.7-22.4,21.3-36.8l25.7-145.6c2.5-14.4-0.1-29.2-7.4-41.9l-73.9-128.1c-7.3-12.7-18.8-22.3-32.6-27.3
	L521.3,78.7c-13.7-5-28.8-5-42.5,0l-138.9,50.6c-13.7,5-25.3,14.7-32.6,27.3l-73.9,128.1C226,297.4,223.4,312.2,225.9,326.6z"/>
<path class="st0" d="M408.1,812l15.5,26.9l-5.4,30.6l-23.8,20h-31.1l-23.8-20l-5.4-30.6l15.5-26.9l29.2-10.6L408.1,812z
	 M298.2,838.9l7.6,42.9c0.7,4.2,3,8.1,6.3,10.9l33.4,28c3.3,2.8,7.5,4.3,11.8,4.3h43.6c4.3,0,8.5-1.5,11.8-4.3l33.4-28
	c3.3-2.8,5.5-6.6,6.3-10.9l7.6-42.9c0.7-4.2,0-8.6-2.2-12.3l-21.8-37.7c-2.2-3.7-5.6-6.6-9.6-8.1l-41-14.9c-4-1.5-8.5-1.5-12.5,0
	l-41,14.9c-4,1.5-7.4,4.3-9.6,8.1l-21.8,37.7C298.2,830.3,297.4,834.7,298.2,838.9z"/>
</svg>
