<svg xmlns="http://www.w3.org/2000/svg" id="Ebene_1" data-name="Ebene 1" preserveAspectRatio="xMinYMax meet" viewBox="0 0 640 160">
  <defs>
    <clipPath id="clip-path">
      <path fill="none" d="M259.41 0h121.18v160H259.41z"/>
    </clipPath>
    <clipPath id="clip-path-7">
      <path d="M358.76 159.94l6.21-13.6-10.09-20.47h6.65l6.59 13.67 6.08-13.67h6.35l-15.51 34.07h-6.28z" class="cls-2"/>
    </clipPath>
    <clipPath id="clip-path-8">
      <path d="M337.24 141.71a9.49 9.49 0 0 0 6.18 2.26c1.64 0 2.87-.8 2.87-1.93 0-3.43-10.89-2.2-10.89-9.53 0-4.37 4.18-7.11 8.62-7.11a14.07 14.07 0 0 1 7.62 2.3l-2.84 4.41a7.66 7.66 0 0 0-4.31-1.57c-1.67 0-3.08.66-3.08 1.83 0 3 10.9 1.8 10.9 9.67 0 4.37-4.21 7-9 7a15.26 15.26 0 0 1-9.01-3.04l2.94-4.3z" class="cls-2"/>
    </clipPath>
    <clipPath id="clip-path-9">
      <path d="M331.46 120.47a8.15 8.15 0 0 0-1.81-.23 4.13 4.13 0 0 0-3.37 1.33c-.5.67-.84 1.5-.84 3.63v.7h6.95v5.17h-6.95v17.64h-6.05v-17.64h-5.81v-5.17h5.81v-.9c0-3.67.84-5.87 2.41-7.43a9.69 9.69 0 0 1 7-2.67 13.55 13.55 0 0 1 3.57.43l-.93 5.17z" class="cls-2"/>
    </clipPath>
    <clipPath id="clip-path-10">
      <path d="M309.17 125.87v22.8h-5.82v-1.83a8.9 8.9 0 0 1-6.08 2.3 9.84 9.84 0 0 1-7.65-3.67 11.4 11.4 0 0 1-2.27-7.5V125.9h6v12.31c0 2.06.4 3.1 1.11 3.9a4.5 4.5 0 0 0 3.37 1.4 6.93 6.93 0 0 0 5.25-2.84v-14.8z" class="cls-2"/>
    </clipPath>
    <clipPath id="clip-path-11">
      <path d="M265.52 148.64h-6V115.3h6v12.2a10 10 0 0 1 13.91 1.57c1.47 1.8 2.3 4.1 2.3 8v11.6h-6v-12.06c0-2.27-.5-3.44-1.34-4.27a4.72 4.72 0 0 0-3.37-1.27 7.12 7.12 0 0 0-5.48 2.84v14.73z" class="cls-2"/>
    </clipPath>
    <clipPath id="clip-path-12">
      <path d="M366.81 31.5a64.79 64.79 0 0 1-11.43 8.8V.07h-16.14v47.1c-11.09 3.17-26.23 2.1-37.29-2.1v-45h-17.18v38.16a77.31 77.31 0 0 1-7.72-4.56c-1.17-.74-2.07-1.4-2.9-2a7.78 7.78 0 0 1-.87-.66l-8.52 11.29c.93.73 2.64 1.9 4.94 3.37a119.91 119.91 0 0 0 12.6 7.1c.87.43 2.44.83 2.44 1.23v38.5h17.14V59.9a75.68 75.68 0 0 0 37.3 1.87V92.5h16.14V56.4a84.72 84.72 0 0 0 21.05-14.6l-9.56-10.3z" class="cls-2"/>
    </clipPath>
  </defs>
  <g clip-path="url(#clip-path-7)">
    <path d="M354.27 125.26h26.88v35.28h-26.88z" class="cls-4"/>
  </g>
  <g clip-path="url(#clip-path-8)">
    <path d="M333.69 124.8h19.22v24.88h-19.22z" class="cls-4"/>
  </g>
  <g clip-path="url(#clip-path-9)">
    <path d="M312.97 114.26H333v35.05h-20.03z" class="cls-4"/>
  </g>
  <g clip-path="url(#clip-path-10)">
    <path d="M286.74 125.26h23.03v24.48h-23.03z" class="cls-4"/>
  </g>
  <g clip-path="url(#clip-path-11)">
    <path d="M258.87 114.7h23.47v34.58h-23.47z" class="cls-4"/>
  </g>
  <g clip-path="url(#clip-path-12)">
    <path d="M264.15-.54h112.83v93.65H264.15z" class="cls-4"/>
  </g>
</svg>
