<svg id="Ebene_1" preserveAspectRatio="xMinYMax meet" data-name="Ebene 1" xmlns="http://www.w3.org/2000/svg" xmlns:xlink="http://www.w3.org/1999/xlink" viewBox="0 0 640 160"><defs><style>.cls-1,.cls-2{fill:none;}.cls-2{clip-path:url(#clip-path);clip-rule:evenodd;}.cls-3{clip-path:url(#clip-path-7);}.cls-4{fill:#212121;}.cls-5{clip-path:url(#clip-path-8);}.cls-6{clip-path:url(#clip-path-9);}.cls-7{clip-path:url(#clip-path-10);}.cls-8{clip-path:url(#clip-path-11);}.cls-9{clip-path:url(#clip-path-12);}</style><clipPath id="clip-path"><rect class="cls-1" x="259.41" width="121.18" height="160"/></clipPath><clipPath id="clip-path-7"><polygon class="cls-2" points="358.76 159.94 364.97 146.34 354.88 125.87 361.53 125.87 368.12 139.54 374.2 125.87 380.55 125.87 365.04 159.94 358.76 159.94 358.76 159.94"/></clipPath><clipPath id="clip-path-8"><path class="cls-2" d="M337.24,141.71a9.49,9.49,0,0,0,6.18,2.26c1.64,0,2.87-.8,2.87-1.93,0-3.43-10.89-2.2-10.89-9.53,0-4.37,4.18-7.11,8.62-7.11a14.07,14.07,0,0,1,7.62,2.3l-2.84,4.41a7.66,7.66,0,0,0-4.31-1.57c-1.67,0-3.08.66-3.08,1.83,0,3,10.9,1.8,10.9,9.67,0,4.37-4.21,7-9,7A15.26,15.26,0,0,1,334.3,146l2.94-4.3Z"/></clipPath><clipPath id="clip-path-9"><path class="cls-2" d="M331.46,120.47a8.15,8.15,0,0,0-1.81-.23,4.13,4.13,0,0,0-3.37,1.33c-.5.67-.84,1.5-.84,3.63v.7h6.95v5.17h-6.95v17.64h-6.05V131.07h-5.81V125.9h5.81V125c0-3.67.84-5.87,2.41-7.43a9.69,9.69,0,0,1,7-2.67,13.55,13.55,0,0,1,3.57.43l-.93,5.17Z"/></clipPath><clipPath id="clip-path-10"><path class="cls-2" d="M309.17,125.87v22.8h-5.82v-1.83a8.9,8.9,0,0,1-6.08,2.3,9.84,9.84,0,0,1-7.65-3.67,11.4,11.4,0,0,1-2.27-7.5V125.9h6v12.31c0,2.06.4,3.1,1.11,3.9a4.5,4.5,0,0,0,3.37,1.4,6.93,6.93,0,0,0,5.25-2.84v-14.8Z"/></clipPath><clipPath id="clip-path-11"><path class="cls-2" d="M265.52,148.64h-6V115.3h6v12.2a10,10,0,0,1,13.91,1.57c1.47,1.8,2.3,4.1,2.3,8v11.6h-6V136.61c0-2.27-.5-3.44-1.34-4.27a4.72,4.72,0,0,0-3.37-1.27,7.12,7.12,0,0,0-5.48,2.84v14.73Z"/></clipPath><clipPath id="clip-path-12"><path class="cls-2" d="M366.81,31.5a64.79,64.79,0,0,1-11.43,8.8V.07H339.24v47.1c-11.09,3.17-26.23,2.1-37.29-2.1V.07H284.77V38.23a77.31,77.31,0,0,1-7.72-4.56c-1.17-.74-2.07-1.4-2.9-2a7.78,7.78,0,0,1-.87-.66L264.76,42.3c.93.73,2.64,1.9,4.94,3.37a119.91,119.91,0,0,0,12.6,7.1c.87.43,2.44.83,2.44,1.23V92.5h17.14V59.9a75.68,75.68,0,0,0,37.3,1.87V92.5h16.14V56.4a84.72,84.72,0,0,0,21.05-14.6l-9.56-10.3Z"/></clipPath></defs><title>logo-hufsy</title><g class="cls-3"><rect class="cls-4" x="354.27" y="125.26" width="26.88" height="35.28"/></g><g class="cls-5"><rect class="cls-4" x="333.69" y="124.8" width="19.22" height="24.88"/></g><g class="cls-6"><rect class="cls-4" x="312.97" y="114.26" width="20.03" height="35.05"/></g><g class="cls-7"><rect class="cls-4" x="286.74" y="125.26" width="23.03" height="24.48"/></g><g class="cls-8"><rect class="cls-4" x="258.87" y="114.7" width="23.47" height="34.58"/></g><g class="cls-9"><rect class="cls-4" x="264.15" y="-0.54" width="112.83" height="93.65"/></g></svg>