<svg width="1000" height="171" xmlns="http://www.w3.org/2000/svg"><path d="M241.981 46.692c0 50.17-26.457 101.836-78.371 101.836h-42.228v-33.245c0-24.578 13.177-48.455 34.162-66.445 20.154-17.275 47.877-27.618 73.242-27.618h13.195v25.472zM228.786.002h34.477v46.69c0 32.746-7.885 62.526-24.96 85.166-18.775 24.9-44.324 37.888-74.693 37.888H100.1v-54.463C100.1 46.49 168.348 0 228.786 0zM21.443 52.328c0 39.384 21.443 73.523 53.607 89.926v25.913C32.164 150.51 0 105.254 0 52.33V0h52.17c23.612 0 45.588 7.69 63.946 20.626-5.518 5.681-10.546 11.91-15.031 18.363-14.199-9.65-30.96-14.317-48.915-14.317H21.443v27.657zm350.101 51.131v63.707H350.35V0h21.194v72.47L438.096 0h26.368l-66.858 76.321 66.612 90.846h-25.381l-56.264-75.762-11.029 12.055zm198.026 7.905c0 34.2-18.521 58.805-54.669 58.805-34.183 0-53.44-24.85-53.44-58.558s18.764-58.559 54.176-58.559c35.169 0 53.933 24.851 53.933 58.312zm-20.165.247c0-25.098-12.125-40.596-34.26-40.596-21.147 0-33.765 15.498-33.765 40.35 0 25.343 12.618 40.845 33.764 40.845 22.136 0 34.261-15.748 34.261-40.6zm38.183-56.088h19.319v13.588c6.685-9.387 20.556-16.059 37.15-16.059 27.986 0 39.627 15.069 39.627 43.23v71.885h-19.812V98.015c0-17.54-6.193-26.68-25.76-26.68-13.375 0-24.52 9.218-30.713 16.628v80.205h-19.811V55.524zm149.634 79.548c0 10.382 4.437 16.806 15.28 16.806 4.928 0 10.596-1.482 15.28-3.46l1.972 17.055c-5.668 2.717-14.046 4.698-22.92 4.698-20.455 0-29.08-13.1-29.08-32.874v-65.25h-21.442V55.032l21.442-.04V26.817l19.468-3.707v31.884h30.067v17.054h-30.067v63.025zm53.668 32.095V54.57h19.304v112.597H790.89zm-4.103-153.342C786.787 4.2 792.579 0 800.299 0c7 0 13.515 4.199 13.515 13.825 0 9.63-6.514 13.335-13.515 13.335-7.72 0-13.512-3.704-13.512-13.335zm117.065 67.03c-6.17-6.641-15.545-12.057-28.622-12.057-15.298 0-21.711 7.874-21.711 16.977 0 6.891 3.7 12.304 13.815 14.765l19.246 4.427c20.973 4.923 31.338 15.255 31.338 31.496 0 18.452-14.313 33.707-45.157 33.707-23.685 0-36.267-10.089-42.931-18.699l12.091-12.057c6.17 7.38 13.819 15.255 31.582 15.255 14.066 0 24.18-5.413 24.18-16.73 0-8.368-6.17-12.798-16.778-15.502l-19.737-4.673c-18.508-4.43-27.39-15.502-27.39-30.51 0-15.995 11.597-34.2 42.194-34.2 20.231 0 33.06 8.12 39.477 15.744l-11.597 12.057zm63.336 54.196c0 10.388 4.475 16.816 15.411 16.816 4.97 0 10.688-1.483 15.412-3.462L1000 165.47c-5.717 2.718-14.167 4.7-23.118 4.7-20.63 0-29.329-13.107-29.329-32.893V71.989h-21.627V54.922l21.627.003V26.732l19.635-3.709v31.902h30.325V71.99h-30.325v63.062z" fill="#5A2FB1" fill-rule="evenodd"/></svg>