<svg xmlns="http://www.w3.org/2000/svg" viewBox="0 0 130 23">
  <path fill="#5a2fb1" d="M29.7.4c-7.9 0-16.7 6-16.7 15v7.1h8.3c3.9 0 7.3-1.7 9.7-4.9 2.2-2.9 3.2-6.8 3.2-11.1V.4h-4.5zm1.8 6.1c0 6.5-3.4 13.2-10.2 13.2h-5.5v-4.3c0-3.2 1.7-6.3 4.4-8.6 2.6-2.2 6.2-3.6 9.5-3.6h1.7v3.3zM2.8 7.2c0 5.1 2.8 9.6 7 11.7v3.4C4.2 20 0 14.1 0 7.2V.4h6.8c3.1 0 5.9 1 8.3 2.7-.7.7-1.4 1.5-2 2.4-1.8-1.3-4-1.9-6.4-1.9h-4v3.6h.1zM48.3 13.9v8.3h-2.8V.4h2.8v9.5L57 .4h3.4l-8.7 10 8.6 11.8H57l-7.3-9.9-1.4 1.6z" class="st0"/>
  <path fill="#5a2fb1" d="M67 7.3c-4.6 0-7 3.2-7 7.6 0 4.4 2.5 7.6 6.9 7.6 4.7 0 7.1-3.2 7.1-7.6 0-4.3-2.4-7.6-7-7.6zm4.4 7.6c0 3.2-1.6 5.3-4.5 5.3-2.7 0-4.4-2-4.4-5.3 0-3.2 1.6-5.2 4.4-5.2 2.9 0 4.5 2 4.5 5.2zM74 14.9zM76.4 7.7h2.5v1.8c.9-1.2 2.7-2.1 4.8-2.1 3.6 0 5.2 2 5.2 5.6v9.3h-2.6v-9.1c0-2.3-.8-3.5-3.3-3.5-1.7 0-3.2 1.2-4 2.2v10.4h-2.6V7.7zM95.8 18c0 1.3.6 2.2 2 2.2.6 0 1.4-.2 2-.4l.3 2.2c-.7.4-1.8.6-3 .6-2.7 0-3.8-1.7-3.8-4.3V9.8h-2.8V7.6h2.8V3.9l2.5-.5v4.1h3.9v2.2h-3.9V18zM102.8 22.2V7.5h2.5v14.7h-2.5zM102.3 2.2c0-1.3.8-1.8 1.8-1.8.9 0 1.8.5 1.8 1.8s-.8 1.7-1.8 1.7c-1.1.1-1.8-.4-1.8-1.7zM117.5 10.9c-.8-.9-2-1.6-3.7-1.6-2 0-2.8 1-2.8 2.2 0 .9.5 1.6 1.8 1.9l2.5.6c2.7.6 4.1 2 4.1 4.1 0 2.4-1.9 4.4-5.9 4.4-3.1 0-4.7-1.3-5.6-2.4l1.6-1.6c.8 1 1.8 2 4.1 2 1.8 0 3.1-.7 3.1-2.2 0-1.1-.8-1.7-2.2-2l-2.6-.6c-2.4-.6-3.6-2-3.6-4 0-2.1 1.5-4.4 5.5-4.4 2.6 0 4.3 1.1 5.1 2l-1.4 1.6zM125.7 18c0 1.4.6 2.2 2 2.2.6 0 1.4-.2 2-.5l.3 2.3c-.7.4-1.8.6-3 .6-2.7 0-3.8-1.7-3.8-4.3V9.8h-2.8V7.6h2.8V3.9l2.6-.5v4.1h3.9v2.2h-3.9l-.1 8.3z"/>
</svg>
