<svg version="1.1" viewBox="0 0 3001 702" xmlns="http://www.w3.org/2000/svg">
    <g fill="none" fill-rule="evenodd">
        <path d="m648.41 312h304.73c21.141 0 38.297 17.148 38.297 38.301v1.3996c0 21.159-17.142 38.301-38.288 38.301h-266.77v234h343.03c21.157 0 38.298 17.147 38.298 38.299v1.3995c0 21.158-17.146 38.299-38.298 38.299h-343.03-37.965c-21.161 0-38.3-17.147-38.3-38.299v-39.698-234-39.701c0-21.159 17.146-38.301 38.297-38.301zm-38.297-272.3v-1.3996c0-21.159 17.148-38.3 38.3-38.3h380.99c21.163 0 38.3 17.148 38.3 38.3v1.3996c0 21.159-17.148 38.3-38.3 38.3h-380.99c-21.163 0-38.3-17.148-38.3-38.3zm1220.4-39.7h530.99c21.15 0 38.294 17.148 38.294 38.3v1.3996c0 21.159-17.149 38.3-38.302 38.3h-226.08v234.7c0 21.146-17.147 38.301-38.3 38.301h0.33515c-21.161 0-38.3-17.148-38.3-38.301v-234.7h-228.63c-21.143 0-38.297-17.148-38.297-38.3v-1.3996c0-21.159 17.145-38.3 38.294-38.3zm-1792.2 0h229.9c115.83 0 209.73 96.036 209.73 214.5s-93.9 214.5-211 214.5h-190.66v234.7c0 21.146-17.147 38.301-38.3 38.301h0.33515c-21.161 0-38.3-17.148-38.3-38.301v-234.7-39.7c0-21.159 17.147-38.3 38.3-38.3h37.965 30.145 161.79c73.71 0 133.46-61.113 133.46-136.5s-59.753-136.5-134.73-136.5h-160.52-68.106c-21.148 0-38.303-17.148-38.303-38.3v-1.3996c0-21.159 17.147-38.3 38.3-38.3zm1677.7 565.5v-176.2c0-21.156 17.147-38.302 38.3-38.302h-0.33515c21.161 0 38.3 17.145 38.3 38.294v274.41c0 21.157-17.147 38.294-38.3 38.294h-12.437c-14.089 0-32.288-9.2233-40.626-20.601l-404.36-551.71v534.01c0 21.152-17.147 38.3-38.3 38.3h0.33515c-21.161 0-38.3-17.149-38.3-38.304v-625.39c0-21.158 17.147-38.304 38.3-38.304h12.437c14.089 0 32.336 9.1793 40.735 20.502l404.25 545zm1006.7-530.37 274.53 631.74c8.4294 19.398-1.8825 35.128-23.035 35.128h-12.437c-14.089 0-30.024-10.51-35.57-23.475l-256.88-600.52-256.88 600.52c-5.5488 12.972-21.471 23.475-35.57 23.475h-12.437c-21.161 0-31.466-15.727-23.035-35.128l274.53-631.74c8.4294-19.398 32.412-35.128 53.565-35.128h-0.33514c21.161 0 45.134 15.727 53.565 35.128z" fill="#000"/>
    </g>
</svg>
