<svg version="1.1" viewBox="0 0 72.1 49.4" xmlns="http://www.w3.org/2000/svg">
 <path d="m0 45.8h22.3v3.6h-22.3zm16.6-15.7-11.2-19.3h-5.1v27.7h4v-18.8c0-1.6 0-2.7-0.1-3.7h0.1c0.4 1.2 0.9 2.2 1.6 3.3l11.2 19.3h5v-27.8h-4v18.9c0 1.6 0 2.7 0.1 3.7h-0.1c-0.4-1.1-0.8-2-1.5-3.3zm47.1-10c-3.2 0-5.7 1.5-6.8 3.8 0-5.3 1.9-10 6.3-10 2.8 0 4 1.6 4.5 4.2l4.1-0.8c-1-4.6-3.9-6.8-8.6-6.8-5.9 0-10.4 4.6-10.4 14.8 0 9.1 3.7 13.5 10.1 13.5 5.2 0 9.2-3.6 9.2-9.5 0-4.6-2.4-9.2-8.4-9.2zm-0.8 15.4c-3.2 0-5.6-3.1-5.9-6.9 1-3.4 3.1-5 5.8-5 3.3 0 5.2 2.4 5.2 5.9-0.1 3.7-2.1 6-5.1 6zm-62.9-35.5h22.3v3.6h-22.3zm41.1 29.7c1.4-1.4 5.8-5.4 5.8-10.9 0-5.8-3.7-8.4-8.7-8.4-6.1 0-9.1 3.8-9.1 8 0 0.7 0.1 1.4 0.3 2.2l4.1 0.4c-0.3-0.8-0.3-1.5-0.3-2.4 0-3.1 2.2-4.8 4.9-4.8 2.6 0 4.5 1.4 4.5 5s-1.7 5.9-4.4 8.6c-2.8 2.8-7.2 6-9.4 7.6v3.3h18.4v-3.7h-12.5c2.1-1.1 5-3.5 6.4-4.9z"/>
</svg>
