<svg xmlns="http://www.w3.org/2000/svg" id="svg3154" viewBox="0 0 130 34">
  <path fill="#112576" d="M120.3 24.5c-.1.3-.3.5-.6.5h-2.9c-.3 0-.5-.2-.5-.5l3.4-19.4c.1-.3.3-.5.6-.5h2.9c.3 0 .5.2.5.5l-3.4 19.4zm5.6-7.2l2 7.3c.1.3-.1.5-.4.5h-3c-.3 0-.5-.3-.6-.5l-2.2-7.5 3.9-5.8c.2-.3.5-.5.8-.5h3.2c.3 0 .5.3.3.5l-4 6zm-10.8-1.6l-1.6 8.8c-.1.3-.3.5-.6.5H110c-.3 0-.5-.2-.5-.5l1.5-8.7c0-.2.1-.4.1-.6 0-.8-.4-1.2-1.4-1.2-.7 0-1.6.3-2.3.6l-1.8 9.9c-.1.3-.3.5-.6.5h-2.9c-.3 0-.5-.2-.5-.5l2.4-13.3c.1-.3.3-.5.6-.5h2.6c.3 0 .5.2.5.5l-.1.4c1-.6 2.2-1.2 3.7-1.2 2.8 0 3.8 1.6 3.8 3.8.2.5.1 1 0 1.5zm-16.2 8.8c-.1.3-.3.5-.6.5h-2.5c-.3 0-.5-.2-.5-.5v-.1c-.9.5-1.9 1-3.1 1-2.9 0-4.2-1.7-4.2-4.1 0-.4 0-.9.1-1.4l.8-4.5c.6-3.3 2.4-5 6.3-5 2.7 0 5.4.7 5.4.7.3.1.5.3.4.6l-2.1 12.8zm-3.8-10.6c-1.5 0-2 .8-2.3 2.2l-.7 3.7c-.1.3-.1.5-.1.7 0 .9.4 1.5 1.6 1.5.5 0 1.2-.2 1.8-.4l1.3-7.5c-.6-.2-1.2-.2-1.6-.2zM86.5 16l-.7 3.9c-.5 3.3-2.5 5.2-6.3 5.2h-5.8c-.3 0-.5-.2-.5-.5l3.4-19.4c.1-.3.3-.5.6-.5h2.9c.3 0 .5.2.5.5l-1.1 6.1c.9-.5 1.8-.8 2.9-.8 2.9 0 4.2 1.8 4.2 4.2 0 .4 0 .8-.1 1.3zm-5.4-2.1c-.6 0-1.3.2-2.1.5l-1.3 7.4h2c1.5 0 2-1 2.3-2.3l.6-3.5c.1-.3.1-.5.1-.7 0-.9-.5-1.4-1.6-1.4zm-8.4-.5c-.1.3-.3.5-.6.5h-3.3L67.7 20c0 .2-.1.4-.1.5 0 .8.5 1.1 1.2 1.1s1.7-.1 1.7-.1c.4-.1.6.2.5.5l-.4 2.5c-.1.3-.3.5-.7.6 0 0-1.4.2-2.6.2-2.4 0-3.8-1.2-3.8-3.6 0-.4.1-.9.1-1.4l1.1-6.3h-1.5c-.3 0-.5-.2-.5-.5l.4-2.2c.1-.3.3-.5.6-.5h1.5l.6-3.2c.1-.3.3-.5.6-.5h2.9c.3 0 .5.2.5.5l-.6 3.2h3.2c.3 0 .5.2.5.5.2-.1-.2 2.1-.2 2.1zm-17.6 6.2l-2 .1c0 1.3.5 2.1 2.4 2.1 1.6 0 4-.6 4-.6.3-.1.5.2.5.5l-.4 2.5c-.1.3-.3.5-.6.6 0 0-2 .6-3.8.6-4.1 0-5.7-2.2-5.7-5.5 0-.6.1-1.2.2-1.9l.2-1.1c.7-4.1 2.9-6.5 6.7-6.5 3.5 0 5.2 1.5 5.2 4.2-.3 3.3-1.8 4.9-6.7 5zm1.1-6c-1.6 0-2.3 1.1-2.7 3.1l1.6-.1c2-.1 2.7-.6 2.7-1.8.1-.7-.5-1.2-1.6-1.2zm-8.7 2.1l-1.6 8.8c-.1.3-.3.5-.6.5h-2.9c-.3 0-.5-.2-.5-.5l1.5-8.7c0-.2.1-.4.1-.6 0-.8-.4-1.2-1.4-1.2-.7 0-1.6.3-2.3.6L38 24.5c-.1.3-.3.5-.6.5h-2.9c-.3 0-.5-.2-.5-.5l2.4-13.3c.1-.3.3-.5.6-.5h2.6c.3 0 .5.2.5.5l-.1.4c1-.6 2.2-1.2 3.7-1.2 2.8 0 3.8 1.6 3.8 3.8.1.5 0 1 0 1.5z"/>
  <path fill="#78bb3a" d="M33.6 17.3c-4.2 4.8-11.8 8.3-18.8 8.3-6.1 0-10-2.6-10.6-6.5h9.5c1.6 0 3.3-.8 3.8-1.7.5-.9-.5-1.7-2.1-1.7H4.5c.2-.5.4-1 .7-1.6h14.1c1.6 0 3.3-.8 3.8-1.7.5-.9-.5-1.7-2.1-1.7H7.7C11.9 6.1 19.2 2.8 26 2.8c5.8 0 9.7 2.4 10.5 6H44C43 3.8 37.7.4 29.6.4 18.2.4 5.5 7.3 1.3 15.8-2.9 24.3 3 31.2 14.5 31.2c5.9 0 12.2-1.9 17.4-4.8l1.7-9.1z"/>
  <path fill="#78bb3a" d="M118 32.4h-.6c-.1 0-.1 0-.1-.1l.7-4.1c0-.1.1-.1.1-.1h.6c.1 0 .1 0 .1.1l-.7 4.1-.1.1zm1.6 0h-.7c-.1 0-.1-.1-.1-.1l-.4-1.6.9-1.2c0-.1.1-.1.2-.1h.7c.1 0 .1.1.1.1l-.8 1.2.4 1.6c-.2 0-.3.1-.3.1zm-3.2 0h-.6c-.1 0-.1 0-.1-.1l.3-1.8c0-.2 0-.4-.3-.4-.1 0-.3.1-.5.1l-.4 2.1c0 .1-.1.1-.1.1h-.6c-.1 0-.1 0-.1-.1l.5-2.8c0-.1.1-.1.1-.1h.5c.1 0 .1 0 .1.1v.1c.2-.1.5-.3.8-.3.7 0 .8.4.7 1l-.4 1.9c.3.1.2.2.1.2zm-3.1 0h-.5c-.1 0-.1 0-.1-.1-.2.1-.5.2-.8.2-.6 0-.9-.3-.8-.9.1-.6.6-.9 1.3-.9h.5v-.2c.1-.3-.1-.4-.4-.4-.3 0-.9.1-.9.1-.1 0-.1 0-.1-.1l.1-.5c0-.1.1-.1.1-.1s.5-.1 1-.1c.9 0 1.1.4.9 1.1l-.3 1.8c.1 0 0 .1 0 .1zm-.5-1.3h-.4c-.3 0-.4.1-.5.3 0 .2.1.3.3.3.2 0 .3-.1.5-.1l.1-.5zm-3.7 1.3H108c-.1 0-.1 0-.1-.1l.7-4.1c0-.1.1-.1.1-.1h.6c.1 0 .1 0 .1.1l-.2 1.3c.2-.1.4-.2.7-.2.7 0 .9.4.8 1.1l-.2.8c-.1.7-.6 1.2-1.4 1.2zm.8-1.9c.1-.3 0-.5-.3-.5-.1 0-.3 0-.4.1l-.3 1.6h.4c.3 0 .5-.2.5-.5l.1-.7zm-2.8 1.9h-.6c-.1 0-.1 0-.1-.1l.3-1.8c0-.2 0-.4-.3-.4-.1 0-.3.1-.5.1l-.4 2.1c0 .1-.1.1-.1.1h-.6c-.1 0-.1 0-.1-.1l.5-2.8c0-.1.1-.1.1-.1h.5c.1 0 .1 0 .1.1v.1c.2-.1.5-.3.8-.3.7 0 .8.4.7 1l-.4 1.9c.2.1.1.2.1.2zm-2.9-1.2h-1.5c0 .3.1.5.5.5.3 0 .8-.1.8-.1.1 0 .1 0 .1.1l-.1.5c0 .1-.1.1-.1.1s-.5.1-.9.1c-.8 0-1.3-.4-1.1-1.5v-.3c.2-.9.7-1.4 1.5-1.4s1.1.6 1 1.3l-.1.5c0 .1-.1.2-.1.2zm-.6-.7c.1-.3 0-.6-.3-.6s-.5.2-.6.6h.9zm-2.1-1.6h-.6c-.1 0-.1 0-.1-.1l.1-.6c0-.1.1-.1.1-.1h.6c.1 0 .1 0 .1.1l-.1.6s0 .1-.1.1zm-.7 3.5h-.6c-.1 0-.1 0-.1-.1l.5-2.8c0-.1.1-.1.1-.1h.6c.1 0 .1 0 .1.1l-.5 2.8c.1 0 0 .1-.1.1zm-1.3 0h-.6c-.6 0-.8-.3-.7-1l.3-1.4h-.3c-.1 0-.1 0-.1-.1l.1-.5c0-.1.1-.1.1-.1h.3l.1-.7c0-.1.1-.1.1-.1h.6c.1 0 .1 0 .1.1l-.1.7h.7c.1 0 .1 0 .1.1l-.1.5c0 .1-.1.1-.1.1h-.7l-.3 1.3c0 .2 0 .3.2.3h.4c.1 0 .1 0 .1.1l-.1.5c.1.1 0 .2-.1.2zm-3.9 0H95c-.1 0-.1 0-.1-.1l.7-4.1c0-.1.1-.1.1-.1h.6c.1 0 .1 0 .1.1l-.7 4.1s0 .1-.1.1zm1.6 0h-.7c-.1 0-.1-.1-.1-.1l-.4-1.6.9-1.2c0-.1.1-.1.2-.1h.7c.1 0 .1.1.1.1l-.8 1.2.4 1.6c-.2 0-.2.1-.3.1zm-2.9 0h-.7c-.1 0-.1 0-.1-.1l-.1-.6H92l-.3.6c0 .1-.1.1-.1.1H91c-.1 0-.1-.1-.1-.1l1.9-4.1c0-.1.1-.1.2-.1h.8c.1 0 .1 0 .1.1l.5 4.1-.1.1zm-1.1-3.3l-.8 1.7h1l-.2-1.7zm-3.9 1.1c-.3 0-.5.2-.7.4l-.3 1.7c0 .1-.1.1-.1.1h-.6c-.1 0-.1 0-.1-.1l.5-2.8c0-.1.1-.1.1-.1h.5c.1 0 .1 0 .1.1v.2c.1-.2.3-.4.6-.4h.1c.1 0 .1 0 .1.1l-.1.7c0 .1 0 .1-.1.1zm-2.4 1h-1.5c0 .3.1.5.5.5.3 0 .8-.1.8-.1.1 0 .1 0 .1.1l-.1.5c0 .1-.1.1-.1.1s-.5.1-.9.1c-.8 0-1.3-.4-1.1-1.5v-.3c.2-.9.7-1.4 1.5-1.4s1.1.6 1 1.3l-.1.5c0 .1 0 .2-.1.2zm-.5-.7c.1-.3 0-.6-.3-.6s-.5.2-.6.6h.9zm-4.1 3.1c-.5 0-1-.1-1-.1-.1 0-.1-.1-.1-.1l.1-.5c0-.1.1-.1.1-.1s.5.1.9.1.5-.2.6-.5v-.1c-.2.1-.4.2-.7.2-.7 0-.9-.4-.8-1.1l.1-.8c.1-.7.6-1.1 1.4-1.1.5 0 1.1.2 1.1.2.1 0 .1 0 .1.1l-.5 2.7c0 .8-.5 1.1-1.3 1.1zm1-3.6h-.4c-.3 0-.5.2-.5.5l-.1.7c-.1.3 0 .5.3.5.1 0 .3 0 .4-.1l.3-1.6zm-2.2.2s-.1 0 0 0c-.3 0-.5.2-.7.4l-.4 1.6c0 .1-.1.1-.1.1h-.6c-.1 0-.1 0-.1-.1l.5-2.8c0-.1.1-.1.1-.1h.5c.1 0 .1 0 .1.1v.2c.1-.2.3-.4.6-.4h.1c.1 0 .1 0 .1.1l-.1.7c.1.2 0 .2 0 .2zm-2.7 2.2h-.5c-.1 0-.1 0-.1-.1v-.1c-.2.1-.5.3-.8.3-.7 0-.8-.4-.7-1l.4-1.9c0-.1.1-.1.1-.1h.6c.1 0 .1 0 .1.1l-.3 1.8c0 .2 0 .4.3.4.1 0 .3-.1.5-.1l.4-2.1c0-.1.1-.1.1-.1h.6c.1 0 .1 0 .1.1l-.5 2.8c-.2-.1-.2 0-.3 0zm-4.2 0H73c-.1 0-.1 0-.1-.1l.7-4.1c0-.1.1-.1.1-.1h.6c.1 0 .1 0 .1.1l-.2 1.3c.2-.1.4-.2.7-.2.7 0 .9.4.8 1.1l-.2.8c0 .7-.5 1.2-1.3 1.2zm.7-1.9c.1-.3 0-.5-.3-.5-.1 0-.3 0-.4.1l-.3 1.6h.4c.3 0 .5-.2.5-.5l.1-.7zm-3.8 1.9c-.5 0-1-.1-1-.1-.1 0-.1 0-.1-.1l.1-.5c0-.1.1-.1.1-.1s.6.1.9.1c.3 0 .5-.1.5-.2 0-.2-.1-.2-.4-.2H71c-.4-.1-.9-.2-.7-.9.1-.7.7-1 1.4-1 .5 0 .9.1.9.1.1 0 .1 0 .1.1l-.1.4c0 .1-.1.1-.1.1s-.5-.1-.8-.1c-.3 0-.4.1-.5.2 0 .1.1.2.3.2h.2c.4.1.9.2.7.9-.1.9-.5 1.1-1.3 1.1zm-3.2 1.2c-.5 0-1-.1-1-.1-.1 0-.1-.1-.1-.1l.1-.5c0-.1.1-.1.1-.1s.5.1.9.1.5-.2.6-.5v-.1c-.2.1-.4.2-.7.2-.7 0-.9-.4-.8-1.1l.1-.8c.1-.7.6-1.1 1.4-1.1.5 0 1.1.2 1.1.2.1 0 .1 0 .1.1l-.5 2.7c-.1.8-.5 1.1-1.3 1.1zm1-3.6h-.4c-.3 0-.5.2-.5.5l-.1.7c-.1.3 0 .5.3.5.1 0 .3 0 .4-.1l.3-1.6zm-2.8 2.4h-.5c-.1 0-.1 0-.1-.1v-.1c-.2.1-.5.3-.8.3-.7 0-.8-.4-.7-1l.4-1.9c0-.1.1-.1.1-.1h.5c.1 0 .1 0 .1.1l-.3 1.8c0 .2 0 .4.3.4.1 0 .3-.1.5-.1l.4-2.1c0-.1.1-.1.1-.1h.6c.1 0 .1 0 .1.1l-.5 2.8c-.1-.1-.2 0-.2 0zm-2.9 0h-.7c-.1 0-.1 0-.1-.1l-.1-.6H61l-.3.6c0 .1-.1.1-.1.1h-.7c-.1 0-.1-.1-.1-.1l1.9-4.1c0-.1.1-.1.2-.1h.8c.1 0 .1 0 .1.1l.5 4.1-.1.1zm-1.1-3.3l-.8 1.7h1l-.2-1.7zm-3.9 1.1c-.3 0-.5.2-.7.4l-.3 1.7c0 .1-.1.1-.1.1h-.6c-.1 0-.1 0-.1-.1l.5-2.8c0-.1.1-.1.1-.1h.5c.1 0 .1 0 .1.1v.2c.1-.2.3-.4.6-.4h.1c.1 0 .1 0 .1.1l-.1.7c0 .1 0 .1-.1.1zm-2.4 1h-1.5c0 .3.1.5.5.5.3 0 .8-.1.8-.1.1 0 .1 0 .1.1l-.1.5c0 .1-.1.1-.1.1s-.5.1-.9.1c-.8 0-1.3-.4-1.1-1.5v-.3c.2-.9.7-1.4 1.5-1.4s1.1.6 1 1.3v.6c-.1 0-.1.1-.2.1zm-.5-.7c.1-.3 0-.6-.3-.6s-.5.2-.6.6h.9zm-2.8 1.9H52c-.1 0-.1 0-.1-.1-.2.1-.5.2-.7.2-.7 0-.9-.4-.8-1.1l.2-1c.1-.7.5-1.1 1.2-1.1.2 0 .4.1.6.1l.2-1.2c0-.1.1-.1.1-.1h.6c.1 0 .1 0 .1.1l-.7 4.1c-.1 0-.1.1-.2.1zm-.3-2.3c-.1 0-.3-.1-.4-.1-.3 0-.4.2-.5.5l-.1.8c-.1.3 0 .5.3.5.1 0 .3 0 .4-.1l.3-1.6zm-4.3 1.1h-1.5c0 .3.1.5.5.5.3 0 .8-.1.8-.1.1 0 .1 0 .1.1l-.1.5c0 .1-.1.1-.1.1s-.5.1-.9.1c-.8 0-1.3-.4-1.1-1.5v-.3c.2-.9.7-1.4 1.5-1.4s1.1.6 1 1.3l-.1.6-.1.1zm-.5-.7c.1-.3 0-.6-.3-.6s-.5.2-.6.6h.9zm-4.1 1.9h-.6c-.1 0-.1 0-.1-.1l.7-4.1c0-.1.1-.1.1-.1h.6c.1 0 .1 0 .1.1l-.7 4.1s0 .1-.1.1zm1.6 0h-.7c-.1 0-.1-.1-.1-.1l-.4-1.6.9-1.2c0-.1.1-.1.2-.1h.7c.1 0 .1.1.1.1l-.8 1.2.4 1.6c-.2 0-.2.1-.3.1zm-2.5-2.2s-.1 0 0 0c-.3 0-.5.2-.7.4l-.3 1.7c0 .1-.1.1-.1.1h-.6c-.1 0-.1 0-.1-.1l.5-2.8c0-.1.1-.1.1-.1h.5c.1 0 .1 0 .1.1v.2c.1-.2.3-.4.6-.4h.1c.1 0 .1 0 .1.1l-.1.7c0 .1-.1.1-.1.1zm-2.7 2.2h-.5c-.1 0-.1 0-.1-.1-.2.1-.5.2-.8.2-.6 0-.9-.3-.8-.9.1-.6.6-.9 1.3-.9h.5v-.2c.1-.3-.1-.4-.4-.4-.3 0-.9.1-.9.1-.1 0-.1 0-.1-.1l.1-.5c0-.1.1-.1.1-.1s.5-.1 1-.1c.9 0 1.1.4.9 1.1l-.3 1.8c.1 0 .1.1 0 .1zm-.5-1.3h-.4c-.3 0-.4.1-.5.3 0 .2.1.3.3.3.2 0 .3-.1.5-.1l.1-.5zm-2.5 1.3h-.6c-.1 0-.1 0-.1-.1l.5-2.5-1 1.8c0 .1-.1.1-.2.1h-.6c-.1 0-.1-.1-.1-.1l-.4-1.8-.5 2.5c0 .1-.1.1-.1.1H33c-.1 0-.1 0-.1-.1l.7-4.1c0-.1.1-.1.1-.1h.7c.1 0 .1.1.1.1l.6 2.5 1.5-2.5c0-.1.1-.1.2-.1h.7c.1 0 .1 0 .1.1l-.7 4.1c-.1 0-.2.1-.2.1z" class="st1"/>
</svg>
