<svg xmlns="http://www.w3.org/2000/svg" viewBox="0 0 552.746 534.219">
  <path fill="#04256c" fill-rule="evenodd" d="M40 231.317c0 104.62 75.952 191.316 186.266 191.316 109.72 0 185.673-86.696 185.673-191.316C411.939 120.26 337.373 40 226.266 40 114.566 40 40 120.26 40 231.317m71.694 0c0-69.506 42.284-136.853 114.572-136.853 71.695 0 113.978 67.347 113.978 136.853 0 65.208-35.055 136.862-113.978 136.862-79.517 0-114.572-71.654-114.572-136.862"/>
  <path fill="#04256c" d="M512.746 494.219v-25.51h-66.05c26.44-25.964 60.9-57.493 60.9-91.806 0-31.767-19.903-47.294-50.7-47.294-16.438 0-33.371 4.179-48.027 11.596l2.574 26.895c10.596-6.961 23.667-12.992 37.333-12.992 13.17 0 26.44 6.961 26.44 21.795 0 29.678-54.96 75.586-70.011 90.193v27.123h107.541"/>
</svg>
