<svg xmlns="http://www.w3.org/2000/svg" viewBox="0 0 120 29">
  <path d="M41.2.5H25.9c-.8 0-1.5.7-1.5 1.5s.7 1.5 1.5 1.5h15.2c.8 0 1.5-.7 1.5-1.5.1-.9-.6-1.5-1.4-1.5zM50.3 28.5zM10.7.5H1.5C.7.5 0 1.1 0 2c0 .8.7 1.5 1.5 1.5H10.6c3 0 5.4 2.4 5.4 5.5s-2.4 5.5-5.3 5.5H1.5c-.8 0-1.5.7-1.5 1.5v11c0 .8.7 1.5 1.5 1.5S3 27.8 3 27v-9.4h7.6c4.7 0 8.4-3.8 8.4-8.6S15.4.5 10.7.5zM41.2 25.4H27.5V16h10.7c.8 0 1.5-.7 1.5-1.5v-.1c0-.8-.7-1.5-1.5-1.5H25.9c-.8 0-1.5.7-1.5 1.5V27c0 .8.7 1.5 1.5 1.5h15.2c.8 0 1.5-.7 1.5-1.5.1-.9-.6-1.6-1.4-1.6zM1.5 28.5zM83.9 14.5zM106.8.5zM119.9 27.1l-11-25.3c-.3-.8-1.3-1.4-2.1-1.4s-1.8.6-2.1 1.4l-11 25.3c-.3.8.1 1.4.9 1.4h.5c.6 0 1.2-.4 1.4-.9l10.3-24 10.3 24c.2.5.9.9 1.4.9h.5c.8 0 1.2-.6.9-1.4zM96 2c0-.9-.7-1.6-1.5-1.6H73.2c-.8 0-1.5.7-1.5 1.5V2c0 .8.7 1.5 1.5 1.5h9.1V13c0 .8.7 1.5 1.5 1.5s1.5-.7 1.5-1.5V3.6h9c1 0 1.7-.7 1.7-1.6zM70.2 14.5zM70.2 14.5c-.8 0-1.5.7-1.5 1.5v7L52.5 1.3c-.3-.5-1.1-.8-1.6-.8h-.5c-.8 0-1.5.7-1.5 1.5v25c0 .8.7 1.5 1.5 1.5s1.5-.7 1.5-1.5V5.6L68 27.7c.3.5 1.1.8 1.6.8h.5c.8 0 1.5-.7 1.5-1.5V16c.1-.8-.6-1.5-1.4-1.5z"/>
</svg>
