<svg xmlns="http://www.w3.org/2000/svg" viewBox="0 0 130 36">
  <path fill="#ffcc01" d="M-.026.373h130.04V35.64H-.026z"/>
  <path fill="#010166" d="M33.49 8.623l-11.344.31c-5.878 3.505-10.21 12.58-10.931 17.943h9.797c.618-4.95 3.61-12.994 12.478-18.253zm45.89 3.61V25.74h2.269v-1.134c.619.928 1.753 1.34 2.784 1.34 2.785 0 3.919-2.371 3.919-4.846 0-2.578-1.031-4.847-3.816-4.847-1.237 0-2.165.619-2.784 1.444v-5.466H79.38zm30.834 0V25.74h2.372v-4.537l3.094 4.537h3.094l-3.92-5.156 3.404-4.125h-2.888l-2.887 3.713v-7.94h-2.269zm-65.071 1.03v12.581h2.475v-4.743h1.031c2.681 0 4.847-1.031 4.847-4.022 0-2.99-2.475-3.816-5.26-3.816h-3.093zm30.73.62l-2.371.824v1.856h-1.753v1.753h1.753v4.744c0 1.856 1.031 2.99 2.887 2.99.722 0 1.238-.102 1.754-.206l-.104-1.856c-.206.206-.618.206-1.134.206-.928 0-1.134-.721-1.134-1.546v-4.332h2.165v-1.753h-2.165v-2.68zm-28.255 1.34h.928c1.34 0 2.372.515 2.372 1.959s-1.135 1.856-2.372 1.856h-.928v-3.815zm-8.972.825l-3.816.103c-2.784 2.062-4.64 5.878-5.156 8.868h2.888c.206-1.65 1.547-6.084 6.084-8.971zm19.8.103c-2.785 0-4.847 1.856-4.847 5.053 0 2.681 1.753 4.847 4.847 4.847 3.094 0 4.847-2.166 4.847-4.847.103-3.094-2.063-5.053-4.847-5.053zm9.694.103c-1.857 0-3.61.928-3.61 2.887 0 3.3 4.228 2.063 4.228 3.92 0 .927-.928 1.133-1.547 1.133a4.79 4.79 0 0 1-2.371-.618l-.207 2.062c.928.206 1.857.413 2.682.413 1.959 0 3.918-.825 3.918-2.99 0-3.3-4.228-2.373-4.228-3.92 0-.825.722-1.03 1.444-1.03.928 0 1.444.102 2.166.412l.206-1.857c-.722-.206-1.547-.412-2.681-.412zm25.471 0c-1.031 0-2.268.31-3.197.722l.104 2.062c.825-.618 1.856-1.031 2.887-1.031 1.444 0 2.062.516 2.062 1.96h-1.34c-1.031 0-2.166.103-3.094.515-.928.413-1.547 1.238-1.547 2.681 0 1.753 1.65 2.785 3.197 2.785a3.418 3.418 0 0 0 2.888-1.65c0 .309 0 .928.103 1.34h2.165c-.103-.722-.103-1.34-.103-2.062v-3.61c-.206-2.475-1.34-3.712-4.125-3.712zm11.344 0c-1.238 0-2.269.412-2.99 1.444V16.46h-2.27v9.281h2.372v-4.537c0-1.238.413-3.094 2.166-3.094 1.547 0 1.547 1.547 1.547 2.681v4.95h2.372v-5.878c0-2.062-.928-3.61-3.197-3.61zm-46.51 1.856c1.548 0 2.373 1.34 2.373 2.785 0 1.546-.516 3.3-2.372 3.3-1.856 0-2.269-1.754-2.269-3.3 0-1.444.722-2.785 2.269-2.785zm25.37 0c1.546 0 2.062 1.753 2.062 2.99 0 1.238-.516 2.991-2.063 2.991-1.65 0-2.165-1.65-2.165-2.99 0-1.238.619-2.99 2.165-2.99zm10.518 3.403h1.031c0 .722-.103 1.34-.515 1.857-.413.515-.928.824-1.65.824-.825 0-1.547-.309-1.547-1.134 0-1.444 1.547-1.547 2.681-1.547z"/>
  <path fill="red" d="M29.88 13.263l6.703-.206c-5.465 2.888-8.146 8.972-8.662 12.684h-5.053c.412-2.99 2.475-9.075 7.012-12.478z"/>
</svg>
